<svg width="188" height="71" viewBox="0 0 188 71" fill="none" xmlns="http://www.w3.org/2000/svg">
<rect width="188" height="71" fill="white"/>
<path d="M8 19.5C22.3333 9.5 36.6667 9.5 51 19.5C65.3333 29.5 79.6667 29.5 94 19.5C108.333 9.5 122.667 9.5 137 19.5C151.333 29.5 165.667 29.5 180 19.5" stroke="#4C75F2" stroke-width="2"/>
<path d="M8 51.5C22.3333 41.5 36.6667 41.5 51 51.5C65.3333 61.5 79.6667 61.5 94 51.5C108.333 41.5 122.667 41.5 137 51.5C151.333 61.5 165.667 61.5 180 51.5" stroke="#4C75F2" stroke-width="2"/>
<path d="M8 35.5C22.3333 25.5 36.6667 25.5 51 35.5C65.3333 45.5 79.6667 45.5 94 35.5C108.333 25.5 122.667 25.5 137 35.5C151.333 45.5 165.667 45.5 180 35.5" stroke="#4C75F2" stroke-width="2"/>
</svg>
